<?xml version="1.0" encoding="UTF-8"?>
<svg width="868px" height="1165px" viewBox="0 0 868 1165" version="1.1" xmlns="http://www.w3.org/2000/svg" xmlns:xlink="http://www.w3.org/1999/xlink">
    <title>cora_art</title>
    <g id="app" stroke="none" stroke-width="1" fill="none" fill-rule="evenodd">
        <path d="M584.739884,873.249566 C584.199874,1034.05771 453.674688,1164.24957 292.741566,1164.24957 C133.087091,1164.24957 3.35927649,1036.1183 0.780685655,877.07832 L0.749565998,873.249566 L584.739884,873.249566 Z M726.990318,873 C804.90917,873.270049 867.990318,936.517895 867.990318,1014.49913 C867.990318,1091.86594 805.899309,1154.73062 728.83028,1155.98018 L726.990318,1155.99557 L726.990318,873 Z M575.998318,582 C735.652794,582 865.380608,710.131269 867.959199,869.171246 L867.990318,873 L585.075566,873 L587.323384,873.026947 C664.164485,874.536479 725.990318,937.297707 725.990318,1014.49913 C725.990318,1091.86594 663.899309,1154.73062 586.83028,1155.98018 L584.990318,1155.99557 L584.989566,873 L284,873 C284.54001,712.191853 415.065196,582 575.998318,582 Z M141.749566,590.254 L141.749566,873.249566 C63.8307139,872.979517 0.749565998,809.731671 0.749565998,731.750434 C0.749565998,654.383625 62.8405749,591.518948 139.909605,590.269391 L141.749566,590.254 Z M283.749566,590.254 L283.749566,873.249566 C205.830714,872.979517 142.749566,809.731671 142.749566,731.750434 C142.749566,654.383625 204.840575,591.518948 281.909605,590.269391 L283.749566,590.254 Z M584.739884,291.249566 C584.199874,452.057713 453.674688,582.249566 292.741566,582.249566 C133.087091,582.249566 3.35927649,454.118297 0.780685655,295.07832 L0.749565998,291.249566 L584.739884,291.249566 Z M726.990318,291 C804.90917,291.270049 867.990318,354.517895 867.990318,432.499132 C867.990318,509.865941 805.899309,572.730618 728.83028,573.980175 L726.990318,573.995566 L726.990318,291 Z M575.998318,0 C735.652794,0 865.380608,128.131269 867.959199,287.171246 L867.990318,291 L585.075566,291 L587.323384,291.026947 C664.164485,292.536479 725.990318,355.297707 725.990318,432.499132 C725.990318,509.865941 663.899309,572.730618 586.83028,573.980175 L584.990318,573.995566 L584.989566,291 L284,291 C284.54001,130.191853 415.065196,0 575.998318,0 Z M141.749566,8.254 L141.749566,291.249566 C63.8307139,290.979517 0.749565998,227.731671 0.749565998,149.750434 C0.749565998,72.3836248 62.8405749,9.51894782 139.909605,8.26939096 L141.749566,8.254 Z M283.749566,8.254 L283.749566,291.249566 C205.830714,290.979517 142.749566,227.731671 142.749566,149.750434 C142.749566,72.3836248 204.840575,9.51894782 281.909605,8.26939096 L283.749566,8.254 Z" id="cora_art" fill="#212121"></path>
    </g>
</svg>