<?xml version="1.0" encoding="UTF-8"?>
<svg width="879px" height="1169px" viewBox="0 0 879 1169" version="1.1" xmlns="http://www.w3.org/2000/svg" xmlns:xlink="http://www.w3.org/1999/xlink">
    <title>cora_art</title>
    <g id="app" stroke="none" stroke-width="1" fill="none" fill-rule="evenodd">
        <path d="M586.249566,885.750434 C664.168418,886.020483 727.249566,949.268329 727.249566,1027.24957 C727.249566,1104.61638 665.158557,1167.48105 588.089527,1168.73061 L586.249566,1168.74557 L586.249566,885.750434 Z M737.249566,885.750434 C815.168418,886.020483 878.249566,949.268329 878.249566,1027.24957 C878.249566,1104.61638 816.158557,1167.48105 739.089527,1168.73061 L737.249566,1168.74557 L737.249566,885.750434 Z M578,0 C737.654475,0 867.38229,128.131269 869.96088,287.171246 L869.992,291 L745.160213,290.995392 C819.39316,295.34689 878.249566,356.924903 878.249566,432.249566 C878.249566,509.616375 816.158557,572.481052 739.089527,573.730609 L737.249566,573.745566 L737.249682,291 L594.152207,290.994923 C668.388929,295.342463 727.249566,356.922195 727.249566,432.249566 C727.249566,505.177004 672.079785,565.218849 601.199532,572.915794 C750.040089,584.607535 867.508406,707.909788 869.96088,859.171246 L869.992,863 L583.988682,862.999 L583.944904,866.81659 C580.846445,1025.39897 451.325473,1153 292.001682,1153 C132.347206,1153 2.61939216,1024.86873 0.0408013305,865.828754 L0.00968167318,862 L122.956076,862.004256 C55.3998223,851.312718 3.749566,792.813358 3.749566,722.250434 C3.749566,644.883625 65.8405749,582.018948 142.909605,580.769391 L144.748682,580.754 L144.747682,861.999 L264.959076,862.00473 C197.401351,851.31445 145.749566,792.814402 145.749566,722.250434 C145.749566,645.773781 206.419999,583.467466 282.255435,580.83692 C127.100107,575.752171 2.56671671,449.619862 0.0408013305,293.828754 L0.00968167318,290 L122.956076,290.004256 C55.3998223,279.312718 3.749566,220.813358 3.749566,150.250434 C3.749566,72.8836248 65.8405749,10.0189478 142.909605,8.76939096 L144.748682,8.754 L144.747682,289.999 L264.959076,290.00473 C197.401351,279.31445 145.749566,220.814402 145.749566,150.250434 C145.749566,72.8836248 207.840575,10.0189478 284.909605,8.76939096 L286.748682,8.754 L286.742597,271.013253 C297.49988,119.541772 423.789702,0 578,0 Z M586.25144,290.999 L583.988682,290.999 L583.944904,294.81659 C580.846445,453.398965 451.325473,581 292.001682,581 C290.246555,581 288.495046,580.984515 286.747282,580.953674 L286.742597,843.013253 C297.49988,691.541772 423.789702,572 578,572 C580.759588,572 583.510236,572.038281 586.25144,572.11434 L586.25144,290.999 Z" id="cora_art" fill="#212121"></path>
    </g>
</svg>