<?xml version="1.0" encoding="UTF-8"?>
<!--Generator: Apple Native CoreSVG 341-->
<!DOCTYPE svg
PUBLIC "-//W3C//DTD SVG 1.1//EN"
       "http://www.w3.org/Graphics/SVG/1.1/DTD/svg11.dtd">
<svg version="1.1" xmlns="http://www.w3.org/2000/svg" xmlns:xlink="http://www.w3.org/1999/xlink" viewBox="0 0 9.58398 11.5322">
 <g>
  <rect height="11.5322" opacity="0" width="9.58398" x="0" y="0"/>
  <path d="M3.24707 5.44141C3.90332 5.44141 4.34766 5.00391 4.34766 4.35449C4.34766 3.73926 3.97852 3.3291 3.4248 3.3291C3.14453 3.3291 2.92578 3.41113 2.77539 3.60254L2.65918 3.60254C2.69336 3.4248 2.80957 3.25391 2.9873 3.11035C3.1377 2.9873 3.32227 2.8916 3.54102 2.84375C3.7666 2.78906 3.82812 2.72754 3.82812 2.59766C3.82812 2.48145 3.73926 2.38574 3.5752 2.38574C3.22656 2.38574 2.80273 2.59082 2.50879 2.90527C2.20117 3.2334 2.06445 3.65039 2.06445 4.08789C2.06445 4.94238 2.59082 5.44141 3.24707 5.44141ZM5.93359 5.43457C6.58984 5.43457 7.03418 4.99707 7.03418 4.34766C7.03418 3.73242 6.66504 3.32227 6.11133 3.32227C5.83105 3.32227 5.6123 3.4043 5.46875 3.5957L5.3457 3.5957C5.37988 3.4248 5.49609 3.26074 5.65332 3.11719C5.80371 2.98047 6.00879 2.8916 6.22754 2.83691C6.45312 2.78906 6.51465 2.7207 6.51465 2.59082C6.51465 2.47461 6.43262 2.37891 6.26172 2.37891C5.91309 2.37891 5.47559 2.59766 5.19531 2.90527C4.89453 3.22656 4.75098 3.64355 4.75098 4.08105C4.75098 4.93555 5.27734 5.43457 5.93359 5.43457ZM2.56348 7.5332L6.54883 7.5332C6.75391 7.5332 6.91797 7.36914 6.91797 7.15723C6.91797 6.95215 6.75391 6.79492 6.54883 6.79492L2.56348 6.79492C2.34473 6.79492 2.1875 6.95215 2.1875 7.15723C2.1875 7.36914 2.34473 7.5332 2.56348 7.5332ZM2.56348 9.12598L4.42969 9.12598C4.6416 9.12598 4.79883 8.96875 4.79883 8.76367C4.79883 8.55176 4.6416 8.3877 4.42969 8.3877L2.56348 8.3877C2.34473 8.3877 2.1875 8.55176 2.1875 8.76367C2.1875 8.96875 2.34473 9.12598 2.56348 9.12598ZM0 9.78223C0 10.9512 0.567383 11.5254 1.71582 11.5254L7.38281 11.5254C8.53125 11.5254 9.10547 10.9512 9.10547 9.78223L9.10547 1.74316C9.10547 0.581055 8.53125 0 7.38281 0L1.71582 0C0.567383 0 0 0.581055 0 1.74316ZM0.984375 9.76855L0.984375 1.75684C0.984375 1.26465 1.25098 0.984375 1.77051 0.984375L7.33496 0.984375C7.84766 0.984375 8.11426 1.26465 8.11426 1.75684L8.11426 9.76855C8.11426 10.2607 7.84766 10.541 7.33496 10.541L1.77051 10.541C1.25098 10.541 0.984375 10.2607 0.984375 9.76855Z" fill="black"/>
 </g>
</svg>
