<?xml version="1.0" encoding="UTF-8"?>
<!--Generator: Apple Native CoreSVG 341-->
<!DOCTYPE svg
PUBLIC "-//W3C//DTD SVG 1.1//EN"
       "http://www.w3.org/Graphics/SVG/1.1/DTD/svg11.dtd">
<svg version="1.1" xmlns="http://www.w3.org/2000/svg" xmlns:xlink="http://www.w3.org/1999/xlink" viewBox="0 0 13.8002 9.97363">
 <g>
  <rect height="9.97363" opacity="0" width="13.8002" x="0" y="0"/>
  <path d="M10.301 8.07324C10.301 8.33984 10.5266 8.56543 10.7932 8.56543C11.0666 8.56543 11.2854 8.33984 11.2854 8.07324L11.2854 1.72949C11.2854 0.581055 10.7043 0.00683594 9.54221 0.00683594L5.37229 0.00683594C5.01682 0.00683594 4.81174 0.18457 4.81858 0.505859C4.82541 0.820312 5.01682 0.998047 5.37229 0.998047L9.52854 0.998047C10.0207 0.998047 10.301 1.26465 10.301 1.77734ZM12.0031 6.72656L10.7932 8.0459L9.57639 6.72656L9.11838 6.27539C8.90647 6.07031 8.61936 6.0498 8.40744 6.26172C8.20237 6.45996 8.2092 6.76758 8.42112 6.96582L10.1711 8.70898C10.5676 9.10547 11.0119 9.10547 11.4153 8.70898L13.1584 6.96582C13.3703 6.76758 13.3772 6.45996 13.1721 6.26172C12.9602 6.0498 12.6731 6.07031 12.4612 6.27539ZM3.02072 1.90723C3.02072 1.64062 2.80197 1.41504 2.52854 1.41504C2.26194 1.41504 2.03635 1.64062 2.03635 1.90723L2.03635 8.25098C2.03635 9.39941 2.6174 9.97363 3.77951 9.97363L7.95627 9.97363C8.3049 9.97363 8.50998 9.7959 8.50315 9.48145C8.49631 9.16699 8.3049 8.98242 7.95627 8.98242L3.79319 8.98242C3.301 8.98242 3.02072 8.72266 3.02072 8.20312ZM1.31858 3.25391L2.52854 1.93457L3.74533 3.25391L4.20334 3.71191C4.41526 3.91016 4.70237 3.93066 4.91428 3.72559C5.11936 3.52051 5.11252 3.21289 4.90061 3.01465L3.15061 1.27148C2.75412 0.875 2.30979 0.875 1.90647 1.27148L0.163303 3.01465C-0.0486115 3.21289-0.0554475 3.52051 0.149631 3.72559C0.361545 3.93066 0.648654 3.91016 0.860568 3.71191Z" fill="black"/>
 </g>
</svg>
