<?xml version="1.0" encoding="UTF-8"?>
<!--Generator: Apple Native CoreSVG 341-->
<!DOCTYPE svg
PUBLIC "-//W3C//DTD SVG 1.1//EN"
       "http://www.w3.org/Graphics/SVG/1.1/DTD/svg11.dtd">
<svg version="1.1" xmlns="http://www.w3.org/2000/svg" xmlns:xlink="http://www.w3.org/1999/xlink" viewBox="0 0 10.6094 10.1377">
 <g>
  <rect height="10.1377" opacity="0" width="10.6094" x="0" y="0"/>
  <path d="M1.95508 10.1035C3.03516 10.1035 3.91016 9.22852 3.91016 8.1416L3.91016 1.96191C3.91016 0.875 3.03516 0 1.95508 0C0.875 0 0 0.875 0 1.96191C0 3.04883 0.875 3.89648 1.95508 3.89648L3.43848 3.89648C3.69141 3.89648 3.89648 3.69141 3.89648 3.43164C3.89648 3.17871 3.69141 2.97363 3.43848 2.97363L1.95508 2.97363C1.4082 2.97363 0.950195 2.51562 0.950195 1.96191C0.950195 1.4082 1.4082 0.957031 1.95508 0.957031C2.50195 0.957031 2.95996 1.4082 2.95996 1.96191L2.95996 8.1416C2.95996 8.69531 2.50195 9.14648 1.95508 9.14648C1.4082 9.14648 0.950195 8.69531 0.950195 8.1416C0.950195 7.58789 1.4082 7.12988 1.95508 7.12988L8.17578 7.12988C8.72266 7.12988 9.18066 7.58789 9.18066 8.1416C9.18066 8.69531 8.72266 9.14648 8.17578 9.14648C7.62891 9.14648 7.17773 8.69531 7.17773 8.1416L7.17773 1.96191C7.17773 1.4082 7.62891 0.957031 8.17578 0.957031C8.72266 0.957031 9.18066 1.4082 9.18066 1.96191C9.18066 2.51562 8.72266 2.97363 8.17578 2.97363L3.43848 2.97363C3.17871 2.97363 2.97363 3.17871 2.97363 3.43164C2.97363 3.69141 3.17871 3.89648 3.43848 3.89648L8.17578 3.89648C9.25586 3.89648 10.1309 3.04883 10.1309 1.96191C10.1309 0.875 9.25586 0 8.17578 0C7.0957 0 6.2207 0.875 6.2207 1.96191L6.2207 8.1416C6.2207 9.22852 7.0957 10.1035 8.17578 10.1035C9.25586 10.1035 10.1309 9.22852 10.1309 8.1416C10.1309 7.05469 9.25586 6.21387 8.17578 6.21387L1.95508 6.21387C0.875 6.21387 0 7.05469 0 8.1416C0 9.22852 0.875 10.1035 1.95508 10.1035Z" fill="black"/>
 </g>
</svg>
