<?xml version="1.0" encoding="UTF-8"?>
<!--Generator: Apple Native CoreSVG 341-->
<!DOCTYPE svg
PUBLIC "-//W3C//DTD SVG 1.1//EN"
       "http://www.w3.org/Graphics/SVG/1.1/DTD/svg11.dtd">
<svg version="1.1" xmlns="http://www.w3.org/2000/svg" xmlns:xlink="http://www.w3.org/1999/xlink" viewBox="0 0 11.5186 11.04">
 <g>
  <rect height="11.04" opacity="0" width="11.5186" x="0" y="0"/>
  <path d="M5.5166 11.0332C8.56543 11.0332 11.04 8.56543 11.04 5.5166C11.04 2.46777 8.56543 0 5.5166 0C2.47461 0 0 2.46777 0 5.5166C0 8.56543 2.47461 11.0332 5.5166 11.0332ZM5.5166 9.99414C3.04199 9.99414 1.0459 7.99121 1.0459 5.5166C1.0459 3.04199 3.04199 1.03906 5.5166 1.03906C7.99121 1.03906 9.99414 3.04199 9.99414 5.5166C9.99414 7.99121 7.99121 9.99414 5.5166 9.99414Z" fill="black"/>
  <path d="M4.94238 7.15723C6.17969 7.15723 7.19141 6.14551 7.19141 4.9082C7.19141 3.66406 6.17969 2.65918 4.94238 2.65918C3.70508 2.65918 2.69336 3.6709 2.69336 4.9082C2.69336 6.13867 3.70508 7.15723 4.94238 7.15723ZM4.94238 6.33008C4.16309 6.33008 3.51367 5.6875 3.51367 4.9082C3.51367 4.13574 4.16309 3.48633 4.94238 3.48633C5.72168 3.48633 6.36426 4.12891 6.36426 4.9082C6.36426 5.6875 5.72168 6.33008 4.94238 6.33008ZM7.82031 8.31934C8.10742 8.31934 8.3125 8.10742 8.3125 7.80664C8.3125 7.66992 8.24414 7.54004 8.15527 7.44434L6.48047 5.7627L5.71484 6.45996L7.39648 8.1416C7.51953 8.26465 7.64941 8.31934 7.82031 8.31934Z" fill="black"/>
 </g>
</svg>
