<?xml version="1.0" encoding="UTF-8"?>
<!--Generator: Apple Native CoreSVG 341-->
<!DOCTYPE svg
PUBLIC "-//W3C//DTD SVG 1.1//EN"
       "http://www.w3.org/Graphics/SVG/1.1/DTD/svg11.dtd">
<svg version="1.1" xmlns="http://www.w3.org/2000/svg" xmlns:xlink="http://www.w3.org/1999/xlink" viewBox="0 0 11.5186 11.04">
 <g>
  <rect height="11.04" opacity="0" width="11.5186" x="0" y="0"/>
  <path d="M11.04 5.5166C11.04 8.56543 8.56543 11.0332 5.5166 11.0332C2.47461 11.0332 0 8.56543 0 5.5166C0 2.46777 2.47461 0 5.5166 0C8.56543 0 11.04 2.46777 11.04 5.5166ZM1.0459 5.5166C1.0459 7.0846 1.84732 8.46323 3.0655 9.26088L2.99414 9.60449C2.95312 9.80957 3.09668 10.0146 3.30176 10.0557C3.51367 10.0967 3.71875 9.97363 3.75977 9.76172L3.78389 9.64611C4.31623 9.87045 4.90164 9.99414 5.5166 9.99414C6.13366 9.99414 6.7214 9.8696 7.25596 9.64406L7.28027 9.76172C7.32129 9.94629 7.48535 10.0625 7.66992 10.0625C7.84766 10.0625 8.10059 9.85059 8.0459 9.60449L7.97388 9.25839C9.19173 8.46021 9.99414 7.08289 9.99414 5.5166C9.99414 3.04199 7.99121 1.03906 5.5166 1.03906C3.04199 1.03906 1.0459 3.04199 1.0459 5.5166Z" fill="black"/>
  <path d="M5.12695 3.09668L4.11523 6.11133L6.93164 6.11133L5.91309 3.09668C5.7832 2.70703 5.26367 2.70703 5.12695 3.09668ZM7.66992 10.0625C7.84766 10.0625 8.10059 9.85059 8.0459 9.60449L7.3418 6.2207C7.28027 5.93359 7.04785 5.72852 6.77441 5.72852L4.26562 5.72852C3.99219 5.72852 3.75977 5.93359 3.69824 6.21387L2.99414 9.60449C2.95312 9.80957 3.09668 10.0146 3.30176 10.0557C3.51367 10.0967 3.71875 9.97363 3.75977 9.76172L4.4502 6.45312L4.38184 6.50781L6.66504 6.50781L6.59668 6.45312L7.28027 9.76172C7.32129 9.94629 7.48535 10.0625 7.66992 10.0625Z" fill="black"/>
 </g>
</svg>
