<?xml version="1.0" encoding="UTF-8"?>
<!--Generator: Apple Native CoreSVG 341-->
<!DOCTYPE svg
PUBLIC "-//W3C//DTD SVG 1.1//EN"
       "http://www.w3.org/Graphics/SVG/1.1/DTD/svg11.dtd">
<svg version="1.1" xmlns="http://www.w3.org/2000/svg" xmlns:xlink="http://www.w3.org/1999/xlink" viewBox="0 0 15.9209 12.9131">
 <g>
  <rect height="12.9131" opacity="0" width="15.9209" x="0" y="0"/>
  <path d="M2.36523 9.27424L2.36523 9.67285C2.36523 10.1855 2.64551 10.4521 3.1377 10.4521L7.1709 10.4521L8.16211 11.4434L3.12402 11.4434C1.96191 11.4434 1.38086 10.8691 1.38086 9.7207L1.38086 8.58112C1.67121 8.85848 2.00267 9.0924 2.36523 9.27424ZM14.0615 3.19922L14.0615 9.7207C14.0615 10.8691 13.4873 11.4434 12.3184 11.4434L11.75 11.4434C11.7509 11.4367 11.751 11.4298 11.751 11.4229C11.751 11.062 11.6251 10.7121 11.4069 10.4521L12.3047 10.4521C12.7969 10.4521 13.0771 10.1855 13.0771 9.67285L13.0771 3.24707C13.0771 2.72754 12.7969 2.46777 12.3047 2.46777L7.53699 2.46777C7.15899 2.05173 6.69851 1.71299 6.18082 1.47656L12.3184 1.47656C13.4873 1.47656 14.0615 2.05078 14.0615 3.19922ZM2.01895 1.74778C2.04194 1.73043 2.06715 1.71527 2.09426 1.702Z" fill="black"/>
  <path d="M4.34766 9.75488C6.74707 9.75488 8.69531 7.81348 8.69531 5.41406C8.69531 3.01465 6.74707 1.06641 4.34766 1.06641C1.94824 1.06641 0 3.01465 0 5.41406C0 7.81348 1.94824 9.75488 4.34766 9.75488ZM4.34766 8.70898C2.52246 8.70898 1.05273 7.23242 1.05273 5.41406C1.05273 3.58887 2.52246 2.11914 4.34766 2.11914C6.16602 2.11914 7.64258 3.58887 7.64258 5.41406C7.64258 7.23242 6.16602 8.70898 4.34766 8.70898ZM7.4375 7.59473L6.42578 8.5791L9.76855 11.915C9.91211 12.0654 10.083 12.1201 10.2676 12.1201C10.6641 12.1201 10.9512 11.8193 10.9512 11.4229C10.9512 11.2314 10.876 11.0537 10.7598 10.9307Z" fill="black"/>
  <path d="M2.66602 5.09961L6.0293 5.09961C6.26855 5.09961 6.45312 4.9082 6.45312 4.67578C6.45312 4.43652 6.26855 4.25195 6.0293 4.25195L2.66602 4.25195C2.41992 4.25195 2.24219 4.43652 2.24219 4.67578C2.24219 4.9082 2.41992 5.09961 2.66602 5.09961ZM2.66602 6.56934L5.12012 6.56934C5.35938 6.56934 5.55078 6.38477 5.55078 6.15234C5.55078 5.91309 5.35938 5.72168 5.12012 5.72168L2.66602 5.72168C2.41992 5.72168 2.24219 5.91309 2.24219 6.15234C2.24219 6.38477 2.41992 6.56934 2.66602 6.56934Z" fill="black"/>
 </g>
</svg>
