<?xml version="1.0" encoding="UTF-8"?>
<!--Generator: Apple Native CoreSVG 341-->
<!DOCTYPE svg
PUBLIC "-//W3C//DTD SVG 1.1//EN"
       "http://www.w3.org/Graphics/SVG/1.1/DTD/svg11.dtd">
<svg version="1.1" xmlns="http://www.w3.org/2000/svg" xmlns:xlink="http://www.w3.org/1999/xlink" viewBox="0 0 13.1592 9.97363">
 <g>
  <rect height="9.97363" opacity="0" width="13.1592" x="0" y="0"/>
  <path d="M7.60156 9.17383L8.55859 9.17383L8.55859 0.827148L7.60156 0.827148ZM2.3584 9.97363L10.4863 9.97363C11.8877 9.97363 12.6807 9.12598 12.6807 7.6084L12.6807 2.37207C12.6807 0.854492 11.8877 0.00683594 10.4863 0.00683594L2.3584 0.00683594C0.847656 0.00683594 0 0.854492 0 2.37207L0 7.6084C0 9.12598 0.847656 9.97363 2.3584 9.97363ZM2.3584 8.98242C1.4834 8.98242 0.984375 8.49023 0.984375 7.6084L0.984375 2.37207C0.984375 1.49023 1.4834 0.998047 2.3584 0.998047L10.3223 0.998047C11.2041 0.998047 11.6963 1.49023 11.6963 2.37207L11.6963 7.6084C11.6963 8.49023 11.2041 8.98242 10.3223 8.98242ZM9.59082 2.98047L10.6641 2.98047C10.8486 2.98047 11.0059 2.81641 11.0059 2.63867C11.0059 2.46094 10.8486 2.31055 10.6641 2.31055L9.59082 2.31055C9.41309 2.31055 9.25586 2.46094 9.25586 2.63867C9.25586 2.81641 9.41309 2.98047 9.59082 2.98047ZM9.59082 4.34766L10.6641 4.34766C10.8486 4.34766 11.0059 4.19043 11.0059 4.00586C11.0059 3.82812 10.8486 3.67773 10.6641 3.67773L9.59082 3.67773C9.41309 3.67773 9.25586 3.82812 9.25586 4.00586C9.25586 4.19043 9.41309 4.34766 9.59082 4.34766ZM9.59082 5.71484L10.6641 5.71484C10.8486 5.71484 11.0059 5.55762 11.0059 5.37988C11.0059 5.20215 10.8486 5.05176 10.6641 5.05176L9.59082 5.05176C9.41309 5.05176 9.25586 5.20215 9.25586 5.37988C9.25586 5.55762 9.41309 5.71484 9.59082 5.71484Z" fill="black"/>
 </g>
</svg>
