<?xml version="1.0" encoding="UTF-8"?>
<!--Generator: Apple Native CoreSVG 341-->
<!DOCTYPE svg
PUBLIC "-//W3C//DTD SVG 1.1//EN"
       "http://www.w3.org/Graphics/SVG/1.1/DTD/svg11.dtd">
<svg version="1.1" xmlns="http://www.w3.org/2000/svg" xmlns:xlink="http://www.w3.org/1999/xlink" viewBox="0 0 13.1592 9.97363">
 <g>
  <rect height="9.97363" opacity="0" width="13.1592" x="0" y="0"/>
  <path d="M4.13574 9.17383L5.09961 9.17383L5.09961 0.827148L4.13574 0.827148ZM2.3584 9.97363L10.4863 9.97363C11.8877 9.97363 12.6807 9.12598 12.6807 7.6084L12.6807 2.37207C12.6807 0.854492 11.8877 0.00683594 10.4863 0.00683594L2.3584 0.00683594C0.847656 0.00683594 0 0.854492 0 2.37207L0 7.6084C0 9.12598 0.847656 9.97363 2.3584 9.97363ZM2.3584 8.98242C1.4834 8.98242 0.984375 8.49023 0.984375 7.6084L0.984375 2.37207C0.984375 1.49023 1.4834 0.998047 2.3584 0.998047L10.3223 0.998047C11.2041 0.998047 11.6963 1.49023 11.6963 2.37207L11.6963 7.6084C11.6963 8.49023 11.2041 8.98242 10.3223 8.98242ZM3.10352 2.98047C3.28809 2.98047 3.44531 2.81641 3.44531 2.63867C3.44531 2.46094 3.28809 2.31055 3.10352 2.31055L2.03027 2.31055C1.85254 2.31055 1.69531 2.46094 1.69531 2.63867C1.69531 2.81641 1.85254 2.98047 2.03027 2.98047ZM3.10352 4.34766C3.28809 4.34766 3.44531 4.19043 3.44531 4.00586C3.44531 3.82812 3.28809 3.67773 3.10352 3.67773L2.03027 3.67773C1.85254 3.67773 1.69531 3.82812 1.69531 4.00586C1.69531 4.19043 1.85254 4.34766 2.03027 4.34766ZM3.10352 5.71484C3.28809 5.71484 3.44531 5.55762 3.44531 5.37988C3.44531 5.20215 3.28809 5.05176 3.10352 5.05176L2.03027 5.05176C1.85254 5.05176 1.69531 5.20215 1.69531 5.37988C1.69531 5.55762 1.85254 5.71484 2.03027 5.71484Z" fill="black"/>
 </g>
</svg>
