<?xml version="1.0" encoding="UTF-8"?>
<!--Generator: Apple Native CoreSVG 341-->
<!DOCTYPE svg
PUBLIC "-//W3C//DTD SVG 1.1//EN"
       "http://www.w3.org/Graphics/SVG/1.1/DTD/svg11.dtd">
<svg version="1.1" xmlns="http://www.w3.org/2000/svg" xmlns:xlink="http://www.w3.org/1999/xlink" viewBox="0 0 11.3818 9.22168">
 <g>
  <rect height="9.22168" opacity="0" width="11.3818" x="0" y="0"/>
  <path d="M7.31445 9.22168C8.05273 9.22168 8.6543 8.62012 8.6543 7.88184C8.6543 7.15039 8.05273 6.54883 7.31445 6.54883C6.57617 6.54883 5.97461 7.15039 5.97461 7.88184C5.97461 8.62012 6.57617 9.22168 7.31445 9.22168ZM7.31445 8.49023C6.97266 8.49023 6.70605 8.22363 6.70605 7.88184C6.70605 7.54004 6.97266 7.27344 7.31445 7.27344C7.65625 7.27344 7.92285 7.54004 7.92285 7.88184C7.92285 8.22363 7.65625 8.49023 7.31445 8.49023ZM6.47363 7.38965L0.492188 7.38965C0.21875 7.38965 0 7.6084 0 7.88184C0 8.16211 0.21875 8.37402 0.492188 8.37402L6.47363 8.37402ZM10.4316 7.38965L8.25781 7.38965L8.25781 8.37402L10.4316 8.37402C10.6846 8.37402 10.9033 8.16211 10.9033 7.88184C10.9033 7.6084 10.6846 7.38965 10.4316 7.38965ZM3.60254 5.9541C4.34082 5.9541 4.94238 5.35254 4.94238 4.61426C4.94238 3.88281 4.34082 3.28125 3.60254 3.28125C2.86426 3.28125 2.2627 3.88281 2.2627 4.61426C2.2627 5.35254 2.86426 5.9541 3.60254 5.9541ZM3.60254 5.22266C3.26074 5.22266 2.99414 4.95605 2.99414 4.61426C2.99414 4.27246 3.26074 4.00586 3.60254 4.00586C3.94434 4.00586 4.21094 4.27246 4.21094 4.61426C4.21094 4.95605 3.94434 5.22266 3.60254 5.22266ZM0.464844 4.12207C0.21875 4.12207 0 4.34082 0 4.61426C0 4.89453 0.21875 5.10645 0.464844 5.10645L2.66602 5.10645L2.66602 4.12207ZM10.4111 4.12207L4.4502 4.12207L4.4502 5.10645L10.4111 5.10645C10.6846 5.10645 10.9033 4.89453 10.9033 4.61426C10.9033 4.34082 10.6846 4.12207 10.4111 4.12207ZM7.31445 2.68652C8.05273 2.68652 8.6543 2.08496 8.6543 1.34668C8.6543 0.608398 8.05273 0.00683594 7.31445 0.00683594C6.57617 0.00683594 5.97461 0.608398 5.97461 1.34668C5.97461 2.08496 6.57617 2.68652 7.31445 2.68652ZM7.31445 1.95508C6.97266 1.95508 6.70605 1.68164 6.70605 1.34668C6.70605 0.998047 6.97266 0.738281 7.31445 0.738281C7.65625 0.738281 7.92285 0.998047 7.92285 1.34668C7.92285 1.68164 7.65625 1.95508 7.31445 1.95508ZM6.51465 0.854492L0.492188 0.854492C0.21875 0.854492 0 1.07324 0 1.34668C0 1.62012 0.21875 1.83887 0.492188 1.83887L6.51465 1.83887ZM10.4316 0.854492L8.16211 0.854492L8.16211 1.83887L10.4316 1.83887C10.6846 1.83887 10.9033 1.62012 10.9033 1.34668C10.9033 1.07324 10.6846 0.854492 10.4316 0.854492Z" fill="black"/>
 </g>
</svg>
