<?xml version="1.0" encoding="UTF-8"?>
<!--Generator: Apple Native CoreSVG 341-->
<!DOCTYPE svg
PUBLIC "-//W3C//DTD SVG 1.1//EN"
       "http://www.w3.org/Graphics/SVG/1.1/DTD/svg11.dtd">
<svg version="1.1" xmlns="http://www.w3.org/2000/svg" xmlns:xlink="http://www.w3.org/1999/xlink" viewBox="0 0 10.0967 13.7881">
 <g>
  <rect height="13.7881" opacity="0" width="10.0967" x="0" y="0"/>
  <path d="M9.61816 6.2959L9.61816 10.4453C9.61816 11.9014 8.80469 12.708 7.34863 12.708L2.26953 12.708C0.813477 12.708 0 11.9014 0 10.4453L0 6.2959C0 4.83984 0.813477 4.02637 2.26953 4.02637L3.24707 4.02637L3.24707 5.01074L2.26953 5.01074C1.44922 5.01074 0.984375 5.47559 0.984375 6.2959L0.984375 10.4453C0.984375 11.2656 1.44922 11.7236 2.26953 11.7236L7.34863 11.7236C8.16895 11.7236 8.63379 11.2656 8.63379 10.4453L8.63379 6.2959C8.63379 5.47559 8.16895 5.01074 7.34863 5.01074L6.36426 5.01074L6.36426 4.02637L7.34863 4.02637C8.80469 4.02637 9.61816 4.83984 9.61816 6.2959Z" fill="black"/>
  <path d="M4.80566 1.07324C4.5459 1.07324 4.32031 1.29199 4.32031 1.54492L4.32031 6.87695L4.40234 8.43555C4.41602 8.6543 4.58691 8.83887 4.80566 8.83887C5.03125 8.83887 5.20215 8.6543 5.21582 8.43555L5.29785 6.87695L5.29785 1.54492C5.29785 1.29199 5.07227 1.07324 4.80566 1.07324ZM2.99414 6.43262C2.74121 6.43262 2.55664 6.61035 2.55664 6.86328C2.55664 6.99316 2.60449 7.08887 2.7002 7.18457L4.45703 8.85938C4.58008 8.98242 4.68262 9.02344 4.80566 9.02344C4.93555 9.02344 5.03809 8.98242 5.16113 8.85938L6.91797 7.18457C7.00684 7.08887 7.06152 6.99316 7.06152 6.86328C7.06152 6.61035 6.87012 6.43262 6.61719 6.43262C6.49414 6.43262 6.37109 6.48047 6.28223 6.57617L5.53027 7.39648L4.80566 8.16895L4.08789 7.39648L3.3291 6.57617C3.24707 6.48047 3.11719 6.43262 2.99414 6.43262Z" fill="black"/>
 </g>
</svg>
