<?xml version="1.0" encoding="UTF-8"?>
<svg width="200px" height="200px" viewBox="0 0 200 200" version="1.1" xmlns="http://www.w3.org/2000/svg" xmlns:xlink="http://www.w3.org/1999/xlink">
    <title>favicon</title>
    <g id="favicon" stroke="none" stroke-width="1" fill="none" fill-rule="evenodd">
        <path d="M34.001,145.31285 L121.782604,145.31285 C121.701411,169.454681 102.081773,189 77.8914285,189 C53.8932675,189 34.3934762,169.764008 34.0058802,145.887777 L34.001,145.31285 Z M122.133914,145.09908 C133.831526,145.139655 143.301741,154.646642 143.301741,166.368255 C143.301741,177.997501 133.98019,187.446886 122.41003,187.634711 L122.133,187.636 L122.133914,145.09908 Z M144.831,145.09908 C156.528805,145.139655 165.999021,154.646642 165.999021,166.368255 C165.999021,177.997501 156.67747,187.446886 145.10731,187.634711 L144.831,187.636 L144.831,145.09908 Z M55.744,102.613 L55.7443342,145.151556 C44.0467226,145.110981 34.5765075,135.603994 34.5765075,123.882381 C34.5765075,117.421689 37.4535294,111.633793 41.9947916,107.732977 L42.4967457,107.314978 C46.0558212,104.442202 50.5596656,102.695608 55.4682182,102.615925 L55.744,102.613 Z M77.088,102.613 L77.088796,145.151556 C65.3911844,145.110981 55.9209693,135.603994 55.9209693,123.882381 C55.9209693,112.253135 65.2425203,102.80375 76.8126799,102.615925 L77.088,102.613 Z M121.782604,101.3257 C145.780765,101.3257 165.280556,120.561692 165.668152,144.437922 L165.673033,145.01285 L77.8914286,145.01285 C77.9726216,120.871019 97.5922598,101.3257 121.782604,101.3257 Z M121.782604,55.9875711 C121.701411,80.1289809 102.081773,99.6743003 77.8914285,99.6743003 C53.8932675,99.6743003 34.3934762,80.4383082 34.0058802,56.5620776 L34.001,55.987 L121.782604,55.9875711 Z M122.133738,55.7733808 C133.831526,55.8139554 143.301741,65.3209425 143.301741,77.0425556 C143.301741,88.6718014 133.98019,98.1211866 122.41003,98.3090114 L122.133738,98.3118609 L122.133738,55.7733808 Z M144.831018,55.7733808 C156.528805,55.8139554 165.999021,65.3209425 165.999021,77.0425556 C165.999021,88.6718014 156.67747,98.1211866 145.10731,98.3090114 L144.831018,98.3118609 L144.831018,55.7733808 Z M55.744,13.288 L55.7443342,55.8258559 C50.7143612,55.8084088 46.0962338,54.040622 42.4658069,51.0990634 L41.9657038,50.6810536 C37.4412476,46.7805311 34.5765075,41.0035682 34.5765075,34.556681 C34.5765075,22.9274352 43.8980585,13.47805 55.4682182,13.2902253 L55.744,13.288 Z M77.088,13.288 L77.088796,55.8258559 C65.3911844,55.7852813 55.9209693,46.2782941 55.9209693,34.556681 C55.9209693,22.9274352 65.2425203,13.47805 76.8126799,13.2902253 L77.088,13.288 Z M121.782604,12 C145.780765,12 165.280556,31.2359921 165.668152,55.1122227 L165.673033,55.6871501 L77.8914286,55.6871501 C77.9726216,31.5453194 97.5922598,12 121.782604,12 Z" id="Shape" fill="#212121"></path>
    </g>
</svg>