<?xml version="1.0" encoding="UTF-8"?>
<svg width="1024px" height="1024px" viewBox="0 0 1024 1024" version="1.1" xmlns="http://www.w3.org/2000/svg" xmlns:xlink="http://www.w3.org/1999/xlink">
    <title>icon</title>
    <g id="icon" stroke="none" stroke-width="1" fill="none" fill-rule="evenodd">
        <rect fill="#FFFFFF" x="0" y="0" width="1024" height="1024"></rect>
        <path d="M174.08512,744.001791 L623.526933,744.001791 C623.111224,867.607965 522.658677,967.68 398.804114,967.68 C275.93353,967.68 176.094598,869.191721 174.110107,746.94542 L174.08512,744.001791 Z M625.32564,742.907292 C685.217411,743.115034 733.704913,791.790808 733.704913,851.805468 C733.704913,911.347206 685.978572,959.728058 626.739354,960.689721 L625.32096,960.69632 L625.32564,742.907292 Z M741.53472,742.907292 C801.427484,743.115034 849.914985,791.790808 849.914985,851.805468 C849.914985,911.347206 802.188644,959.728058 742.949427,960.689721 L741.53472,960.69632 L741.53472,742.907292 Z M285.40928,525.37856 L285.410991,743.175965 C225.51922,742.968223 177.031718,694.292449 177.031718,634.277789 C177.031718,601.199046 191.762071,571.56502 215.013333,551.592843 L217.583338,549.452687 C235.805805,534.744076 258.865488,525.801514 283.997277,525.393536 L285.40928,525.37856 Z M394.69056,525.37856 L394.694636,743.175965 C334.802864,742.968223 286.315363,694.292449 286.315363,634.277789 C286.315363,574.736051 334.041704,526.355199 393.280921,525.393536 L394.69056,525.37856 Z M623.526933,518.787583 C746.397517,518.787583 846.236449,617.275862 848.220941,739.522163 L848.245927,742.465791 L398.804115,742.465791 C399.219823,618.859618 499.67237,518.787583 623.526933,518.787583 Z M623.526933,286.656364 C623.111224,410.260382 522.658677,510.332417 398.804114,510.332417 C275.93353,510.332417 176.094598,411.844138 174.110107,289.597837 L174.08512,286.65344 L623.526933,286.656364 Z M625.32474,285.559709 C685.217411,285.767452 733.704913,334.443226 733.704913,394.457885 C733.704913,453.999623 685.978572,502.380475 626.739354,503.342138 L625.32474,503.356728 L625.32474,285.559709 Z M741.534812,285.559709 C801.427484,285.767452 849.914985,334.443226 849.914985,394.457885 C849.914985,453.999623 802.188644,502.380475 742.949427,503.342138 L741.534812,503.356728 L741.534812,285.559709 Z M285.40928,68.03456 L285.410991,285.828382 C259.657529,285.739053 236.012717,276.687985 217.424931,261.627205 L214.864403,259.486994 C191.699188,239.516319 177.031718,209.938269 177.031718,176.930207 C177.031718,117.388468 224.758059,69.0076162 283.997277,68.0459533 L285.40928,68.03456 Z M394.69056,68.03456 L394.694636,285.828382 C334.802864,285.62064 286.315363,236.944866 286.315363,176.930207 C286.315363,117.388468 334.041704,69.0076162 393.280921,68.0459533 L394.69056,68.03456 Z M623.526933,61.44 C746.397517,61.44 846.236449,159.928279 848.220941,282.17458 L848.245927,285.118209 L398.804115,285.118209 C399.219823,161.512035 499.67237,61.44 623.526933,61.44 Z" id="Shape" fill="#212121"></path>
    </g>
</svg>