<?xml version="1.0" encoding="UTF-8"?>
<svg width="136px" height="136px" viewBox="0 0 136 136" version="1.1" xmlns="http://www.w3.org/2000/svg" xmlns:xlink="http://www.w3.org/1999/xlink">
    <title>favicon</title>
    <g id="favicon" stroke="none" stroke-width="1" fill="none" fill-rule="evenodd">
        <path d="M109,0 C123.911688,0 136,12.0883118 136,27 L136,109 C136,123.911688 123.911688,136 109,136 L27,136 C12.0883118,136 0,123.911688 0,109 L0,27 C0,12.0883118 12.0883118,0 27,0 L109,0 Z" id="Combined-Shape" fill="#212121"></path>
        <path d="M38.0046515,87.8878505 L56.5491202,88.1810856 C56.493164,91.0851518 57.7274663,93.8878277 59.9747312,95.9594697 C62.221996,98.0311117 65.2937864,99.1980091 68.5,99.1980091 L68.5,116 C60.3186273,116 52.4802656,113.0224 46.7458657,107.736141 C41.0114658,102.449882 37.8618668,95.2982262 38.0046515,87.8878505 Z M38.0046515,49.2336449 L56.5491202,49.52688 C56.493164,52.4309462 57.7274663,55.233622 59.9747312,57.3052641 C62.221996,59.3769061 65.2937864,60.5438035 68.5,60.5438035 L68.5,60.6542056 C76.6813727,60.6542056 84.5197344,63.6318059 90.2541343,68.9180649 C95.9885342,74.2043238 99.1381332,81.3559794 98.9953485,88.7663551 L80.4508798,88.47312 C80.506836,85.5690538 79.2725337,82.766378 77.0252688,80.6947359 C74.778004,78.6230939 71.7062136,77.4561965 68.5,77.4561965 L68.5,77.3457944 C60.3186273,77.3457944 52.4802656,74.3681941 46.7458657,69.0819351 C41.0114658,63.7956762 37.8618668,56.6440206 38.0046515,49.2336449 Z M68.5,22 C76.6813727,22 84.5197344,24.9776003 90.2541343,30.2638593 C95.9885342,35.5501182 99.1381332,42.7017738 98.9953485,50.1121495 L80.4508798,49.8189144 C80.506836,46.9148482 79.2725337,44.1121723 77.0252688,42.0405303 C74.778004,39.9688883 71.7062136,38.8019909 68.5,38.8019909 L68.5,22 Z" id="Shape" fill="#56FF2E"></path>
    </g>
</svg>