<?xml version="1.0" encoding="UTF-8"?>
<svg width="41px" height="27px" viewBox="0 0 41 27" version="1.1" xmlns="http://www.w3.org/2000/svg" xmlns:xlink="http://www.w3.org/1999/xlink">
    <title>Shape</title>
    <g id="Page-1" stroke="none" stroke-width="1" fill="none" fill-rule="evenodd">
        <path d="M26.5961109,9.09494702e-13 C33.8370039,9.09494702e-13 39.7262173,5.84748024 39.8906742,13.1238356 L39.8942046,13.3905413 L34.9233986,13.3900512 C37.8443764,14.0255835 40.0301982,16.6020999 40.0301982,19.6838819 C40.0301982,23.1654967 37.2404029,26.0022337 33.7525333,26.1239247 L33.5419975,26.1279924 L33.5416473,13.39 L28.0466446,13.3900512 C30.9676224,14.0255835 33.1534442,16.6020999 33.1534442,19.6838819 C33.1534442,23.1654967 30.3636489,26.0022337 26.8757794,26.1239247 L26.6652435,26.1279924 L26.6646473,13.39 L26.5926473,13.39 L26.5915585,13.5422215 C26.4037356,20.7975261 20.5239506,26.6207462 13.2980937,26.6207462 C6.0572007,26.6207462 0.167987384,20.773266 0.00353045187,13.4969106 L-0.000352744174,13.23 L5.35670708,13.2311834 C2.37939874,12.6381737 0.137138868,10.035171 0.137138868,6.91385655 C0.137138868,3.43224181 2.92693413,0.595504794 6.41480369,0.473813777 L6.62464726,0.469 L6.62470218,6.39645918 C6.88488305,3.15522352 9.56829418,0.589417265 12.8816849,0.473813777 L13.0916473,0.469 L13.0916473,13.23 L13.2996473,13.23 L13.3026461,13.0785247 C13.490469,5.82322015 19.370254,9.09494702e-13 26.5961109,9.09494702e-13 Z M6.62463427,7.43040729 L6.62463427,13.23 L11.8235883,13.2311834 C9.01213582,12.6712083 6.85611868,10.3189426 6.62463427,7.43040729 Z" id="Shape" fill="#212121"></path>
    </g>
</svg>